<svg preserveAspectRatio="none" width="100%" height="100%" overflow="visible" style="display: block;" viewBox="0 0 11.6667 11.6667" fill="none" xmlns="http://www.w3.org/2000/svg">
<path id="Vector" d="M6.70628 10.8852L6.12822 11.4783C5.88346 11.7294 5.48767 11.7294 5.24551 11.4783L0.183573 6.2875C-0.0611911 6.03637 -0.0611911 5.6303 0.183573 5.38184L5.24551 0.188344C5.49027 -0.0627815 5.88606 -0.0627815 6.12822 0.188344L6.70628 0.781429C6.95365 1.03523 6.94844 1.44932 6.69587 1.69777L3.5582 4.76471H11.0417C11.3881 4.76471 11.6667 5.05057 11.6667 5.40589V6.26078C11.6667 6.6161 11.3881 6.90195 11.0417 6.90195H3.5582L6.69587 9.9689C6.95105 10.2174 6.95626 10.6314 6.70628 10.8852Z" fill="var(--fill-0, #11A7B6)"/>
</svg>
