<svg preserveAspectRatio="none" width="100%" height="100%" overflow="visible" style="display: block;" viewBox="0 0 15 20" fill="none" xmlns="http://www.w3.org/2000/svg">
<path id="Vector" d="M11.875 7.5C10.3906 7.5 9.14844 8.53516 8.83203 9.92188C7.89844 9.78516 6.56641 9.41797 5.55469 8.45312C4.90625 7.83203 4.46484 7.02734 4.23828 6.04688C5.41406 5.59766 6.25 4.45703 6.25 3.125C6.25 1.39844 4.85156 0 3.125 0C1.39844 0 0 1.39844 0 3.125C0 4.52344 0.917969 5.70703 2.1875 6.10547V13.8906C0.917969 14.293 0 15.4766 0 16.875C0 18.6016 1.39844 20 3.125 20C4.85156 20 6.25 18.6016 6.25 16.875C6.25 15.4766 5.33203 14.293 4.0625 13.8945V9.61328C4.125 9.67969 4.19141 9.74609 4.25781 9.80859C5.79297 11.2734 7.78906 11.707 8.99219 11.832C9.46484 12.9609 10.5781 13.7539 11.875 13.7539C13.6016 13.7539 15 12.3555 15 10.6289C15 8.90234 13.6016 7.5 11.875 7.5ZM3.125 2.5C3.46875 2.5 3.75 2.78125 3.75 3.125C3.75 3.46875 3.46875 3.75 3.125 3.75C2.78125 3.75 2.5 3.46875 2.5 3.125C2.5 2.78125 2.78125 2.5 3.125 2.5ZM3.125 17.5C2.78125 17.5 2.5 17.2188 2.5 16.875C2.5 16.5312 2.78125 16.25 3.125 16.25C3.46875 16.25 3.75 16.5312 3.75 16.875C3.75 17.2188 3.46875 17.5 3.125 17.5ZM11.875 11.25C11.5312 11.25 11.25 10.9688 11.25 10.625C11.25 10.2812 11.5312 10 11.875 10C12.2188 10 12.5 10.2812 12.5 10.625C12.5 10.9688 12.2188 11.25 11.875 11.25Z" fill="var(--fill-0, #11A7B6)"/>
</svg>
