<svg preserveAspectRatio="none" width="100%" height="100%" overflow="visible" style="display: block;" viewBox="0 0 19.4601 24" fill="none" xmlns="http://www.w3.org/2000/svg">
<path id="Symbol" d="M18.7049 11.5739C18.5951 11.159 18.3359 10.7825 17.9552 10.487C16.8878 9.65776 15.7111 8.92568 14.4567 8.31232C13.2029 7.69824 11.8664 7.2004 10.4855 6.83216C10.24 6.76704 9.98643 6.73384 9.72967 6.73384C9.47362 6.73384 9.21942 6.76704 8.9745 6.83216C7.59298 7.2004 6.25718 7.69824 5.00334 8.31232C3.74897 8.92568 2.57232 9.65776 1.50486 10.487C1.12352 10.7825 0.86445 11.159 0.755253 11.5739H0.754558C0.681786 11.8529 0.681786 12.1471 0.754558 12.426H0.755253C0.86445 12.8416 1.12352 13.2175 1.50486 13.513C2.57232 14.3422 3.74897 15.0742 5.00334 15.6877C6.25718 16.3017 7.59298 16.7995 8.9745 17.1685C9.21942 17.233 9.47362 17.2662 9.72967 17.2662C9.98643 17.2662 10.24 17.233 10.4855 17.1685C11.8664 16.7995 13.2029 16.3017 14.4567 15.6877C15.7111 15.0742 16.8878 14.3422 17.9552 13.513C18.3359 13.2175 18.5951 12.8416 18.7049 12.426C18.7783 12.1471 18.7783 11.8529 18.7049 11.5739ZM18.9745 18.9767C18.8517 19.442 18.5574 19.8626 18.1422 20.185C15.9684 21.8745 13.3819 23.1396 10.5682 23.8908C10.2955 23.9636 10.0129 24 9.72967 24C9.44709 24 9.16451 23.9636 8.89175 23.8908C6.07761 23.1396 3.49168 21.8745 1.31794 20.185C0.902654 19.8626 0.607775 19.442 0.485586 18.9767C0.16163 17.7499 0 16.4995 0 15.2498V14.443V12.0003V9.55696V8.7508C0 7.5004 0.16163 6.25 0.485586 5.02384C0.607775 4.55792 0.902654 4.13792 1.31794 3.81496C3.49168 2.12608 6.07761 0.8604 8.89175 0.10912C9.16451 0.0363999 9.44709 0 9.72967 0C10.0129 0 10.2955 0.0363999 10.5682 0.10912C13.3819 0.8604 15.9684 2.12608 18.1422 3.81496C18.5574 4.13792 18.8517 4.55792 18.9745 5.02384C19.2985 6.25 19.4601 7.5004 19.4601 8.7508V9.55696V12.0003V14.443V15.2498C19.4601 16.4995 19.2985 17.7499 18.9745 18.9767Z" fill="var(--fill-0, #002233)"/>
</svg>
