<svg preserveAspectRatio="none" width="100%" height="100%" overflow="visible" style="display: block;" viewBox="0 0 77.614 16.038" fill="none" xmlns="http://www.w3.org/2000/svg">
<g id="Marketing">
<path id="Vector" d="M73.0034 16.038C72.246 16.038 71.2854 15.95 70.1218 15.774V15.048C70.1218 14.707 70.2975 14.553 70.6487 14.586C71.0878 14.641 71.5105 14.6905 71.9166 14.7345C72.3338 14.7785 72.6906 14.8005 72.9869 14.8005H73.1351C74.1231 14.8005 74.8751 14.575 75.391 14.124C75.9179 13.684 76.1814 13.0405 76.1814 12.1935V11.682C75.5008 12.056 74.9519 12.3145 74.5348 12.4575C74.1176 12.5895 73.7005 12.6555 73.2833 12.6555H73.1187C71.8892 12.6555 70.9067 12.2925 70.1712 11.5665C69.4357 10.8295 69.068 9.801 69.068 8.481V7.689C69.068 6.336 69.4412 5.302 70.1877 4.587C70.9341 3.861 71.9221 3.498 73.1516 3.498H73.3163C73.7993 3.498 74.2603 3.5695 74.6994 3.7125C75.1385 3.8555 75.6545 4.0865 76.2473 4.4055V4.092C76.2473 3.751 76.4174 3.5805 76.7577 3.5805H77.614V12.0945C77.614 13.3485 77.2298 14.3165 76.4613 14.9985C75.6929 15.6915 74.5897 16.038 73.1516 16.038H73.0034ZM73.7444 11.4015C74.0957 11.4015 74.4579 11.341 74.8312 11.22C75.2044 11.099 75.6545 10.923 76.1814 10.692V5.379C75.7203 5.181 75.2922 5.027 74.897 4.917C74.5018 4.807 74.1121 4.752 73.7279 4.752H73.3986C72.5204 4.752 71.8233 5.005 71.3074 5.511C70.7914 6.006 70.5335 6.7265 70.5335 7.6725V8.4645C70.5335 9.3995 70.7914 10.1255 71.3074 10.6425C71.8343 11.1485 72.5424 11.4015 73.4315 11.4015H73.7444Z" fill="var(--fill-0, #002233)"/>
<path id="Vector_2" d="M59.3333 3.5805H60.1731C60.5134 3.5805 60.6836 3.751 60.6836 4.092V4.5375C62.0997 3.8445 63.1645 3.498 63.878 3.498H63.9933C65.0691 3.498 65.8649 3.7565 66.3809 4.2735C66.8968 4.7795 67.1548 5.5385 67.1548 6.5505V12.6555H65.7222V6.798C65.7222 6.083 65.5521 5.566 65.2118 5.247C64.8715 4.917 64.3391 4.752 63.6146 4.752H63.417C63.0657 4.752 62.687 4.807 62.2808 4.917C61.8746 5.027 61.3697 5.203 60.7659 5.445V12.6555H59.3333V3.5805Z" fill="var(--fill-0, #002233)"/>
<path id="Vector_3" d="M55.4905 3.5805H56.4126C56.7529 3.5805 56.9231 3.751 56.9231 4.092V12.6555H55.4905V3.5805ZM56.1821 1.98C55.8528 1.98 55.6113 1.903 55.4576 1.749C55.3039 1.595 55.2271 1.353 55.2271 1.023C55.2271 0.670999 55.3039 0.4125 55.4576 0.2475C55.6113 0.0825001 55.8583 0 56.1986 0C56.5389 0 56.7804 0.0770001 56.9231 0.231C57.0768 0.385 57.1536 0.6325 57.1536 0.9735C57.1536 1.3255 57.0768 1.584 56.9231 1.749C56.7694 1.903 56.5224 1.98 56.1821 1.98Z" fill="var(--fill-0, #002233)"/>
<path id="Vector_4" d="M52.7077 12.738C51.61 12.738 50.7537 12.4905 50.139 11.9955C49.5352 11.4895 49.2333 10.648 49.2333 9.471V1.353H50.1554C50.4958 1.353 50.6659 1.5235 50.6659 1.8645V3.5805H53.6957V4.818H50.6659V9.405C50.6659 10.131 50.8306 10.6535 51.1599 10.9725C51.5002 11.2915 52.0161 11.451 52.7077 11.451H53.2346C53.6079 11.44 53.7945 11.605 53.7945 11.946V12.672C53.4761 12.716 53.1139 12.738 52.7077 12.738Z" fill="var(--fill-0, #002233)"/>
<path id="Vector_5" d="M43.0205 12.738C41.7142 12.738 40.6823 12.364 39.9249 11.616C39.1674 10.868 38.7887 9.8505 38.7887 8.5635V7.656C38.7887 6.82 38.9589 6.0885 39.2992 5.4615C39.6395 4.8345 40.117 4.3505 40.7317 4.0095C41.3574 3.6685 42.0765 3.498 42.8888 3.498H43.2511C44.6781 3.498 45.7155 3.8665 46.3632 4.6035C47.0218 5.3295 47.3512 6.3745 47.3512 7.7385V7.9695C47.3512 8.1235 47.3073 8.2445 47.2194 8.3325C47.1316 8.4205 47.0109 8.4645 46.8572 8.4645H40.2213V8.547C40.2213 9.46 40.4738 10.1915 40.9787 10.7415C41.4947 11.2805 42.1808 11.55 43.037 11.55H43.3663C43.992 11.55 44.508 11.44 44.9142 11.22C45.3203 11 45.5783 10.703 45.6881 10.329C45.743 10.175 45.8088 10.0705 45.8857 10.0155C45.9735 9.9495 46.0888 9.9165 46.2315 9.9165H47.1865C47.1865 10.4555 47.0328 10.9395 46.7254 11.3685C46.4291 11.7865 45.99 12.122 45.4081 12.375C44.8373 12.617 44.1567 12.738 43.3663 12.738H43.0205ZM45.8527 7.227C45.7759 6.358 45.5289 5.72 45.1118 5.313C44.6946 4.895 44.0799 4.686 43.2675 4.686H42.9053C42.1149 4.686 41.4782 4.917 40.9952 5.379C40.5232 5.841 40.2652 6.5065 40.2213 7.3755L45.8527 7.227Z" fill="var(--fill-0, #002233)"/>
<path id="Vector_6" d="M30.2605 0.280499H31.1826C31.5229 0.280499 31.693 0.451 31.693 0.792V7.92L36.1389 3.9435C36.2926 3.8005 36.4244 3.707 36.5341 3.663C36.6549 3.608 36.814 3.5805 37.0116 3.5805H38.3948L33.9819 7.458L38.5101 12.6555H36.7153L32.9609 8.3985L31.693 9.5205V12.6555H30.2605V0.280499Z" fill="var(--fill-0, #002233)"/>
<path id="Vector_7" d="M24.2621 3.5805H25.1184C25.283 3.5805 25.4093 3.6245 25.4971 3.7125C25.5959 3.8005 25.6453 3.927 25.6453 4.092V4.6035C26.3918 4.1965 26.9681 3.9105 27.3743 3.7455C27.7804 3.5805 28.1646 3.498 28.5269 3.498H28.7245V4.455C28.7245 4.631 28.6861 4.7575 28.6092 4.8345C28.5434 4.9115 28.4116 4.9555 28.214 4.9665C27.7749 4.9995 27.3688 5.06 26.9955 5.148C26.6223 5.236 26.1887 5.3735 25.6947 5.5605V12.6555H24.2621V3.5805Z" fill="var(--fill-0, #002233)"/>
<path id="Vector_8" d="M17.5395 12.738C16.5955 12.738 15.827 12.5125 15.2343 12.0615C14.6524 11.6105 14.3615 11 14.3615 10.23V10.0155C14.3615 9.2455 14.647 8.646 15.2178 8.217C15.7996 7.788 16.6668 7.5735 17.8195 7.5735H20.487V6.6C20.487 5.929 20.3168 5.4395 19.9765 5.1315C19.6472 4.8235 19.1148 4.6695 18.3793 4.6695H18.05C17.4682 4.6695 17.0071 4.7685 16.6668 4.9665C16.3265 5.1645 16.1234 5.445 16.0576 5.808C16.0246 5.962 15.9752 6.0665 15.9094 6.1215C15.8545 6.1655 15.7447 6.1875 15.58 6.1875H14.6415C14.6415 5.4175 14.9324 4.7795 15.5142 4.2735C16.096 3.7565 16.9522 3.498 18.0829 3.498H18.3793C19.6088 3.498 20.5035 3.7675 21.0633 4.3065C21.6341 4.8345 21.9196 5.6155 21.9196 6.6495V12.6555H21.0962C20.9426 12.6555 20.8163 12.6115 20.7175 12.5235C20.6297 12.4355 20.5858 12.309 20.5858 12.144V11.814C19.9601 12.133 19.4167 12.3695 18.9556 12.5235C18.5055 12.6665 18.0829 12.738 17.6877 12.738H17.5395ZM18.0994 11.5995C18.6373 11.5995 19.4331 11.363 20.487 10.89V8.6295H17.9018C17.1553 8.6295 16.6229 8.7505 16.3046 8.9925C15.9862 9.2345 15.827 9.5755 15.827 10.0155V10.1805C15.827 10.6315 16.0027 10.9835 16.354 11.2365C16.7162 11.4785 17.2047 11.5995 17.8195 11.5995H18.0994Z" fill="var(--fill-0, #002233)"/>
<path id="Vector_9" d="M2.82312e-06 1.1055H0.889181C1.1746 1.1055 1.37768 1.21 1.49843 1.419L6.20778 9.504L10.7525 1.452C10.8842 1.221 11.0873 1.1055 11.3617 1.1055H12.3497V12.6555H10.8842V3.7785L6.7841 11.0385H5.5656L1.4655 4.026V12.6555H2.82312e-06V1.1055Z" fill="var(--fill-0, #002233)"/>
</g>
</svg>
